<svg width="81" height="80" viewBox="0 0 81 80" fill="none" xmlns="http://www.w3.org/2000/svg">
<path d="M40.5 80C62.5914 80 80.5 62.0914 80.5 40C80.5 17.9086 62.5914 0 40.5 0C18.4086 0 0.5 17.9086 0.5 40C0.5 62.0914 18.4086 80 40.5 80Z" fill="#E4E4E4"/>
<path d="M41.0263 67.8947C56.1415 67.8947 68.3947 55.6415 68.3947 40.5263C68.3947 25.4112 56.1415 13.1579 41.0263 13.1579C25.9112 13.1579 13.6579 25.4112 13.6579 40.5263C13.6579 55.6415 25.9112 67.8947 41.0263 67.8947Z" fill="white" stroke="black" stroke-width="3"/>
<path d="M59.364 27.4999H55.782V24.4172C55.782 23.9755 55.424 23.6173 54.9822 23.6173H51.9268C51.485 23.6173 51.1269 23.9755 51.1269 24.4172V27.5H29.5369V24.4172C29.5369 23.9755 29.1788 23.6173 28.7371 23.6173H25.6817C25.2399 23.6173 24.8819 23.9755 24.8819 24.4172V27.5H21.2999C20.8581 27.5 20.5 27.8582 20.5 28.2999V33.3691C20.5 33.8108 20.8581 34.1689 21.2999 34.1689H21.4466L21.4466 54.2001C21.4466 54.6418 21.8046 55 22.2464 55H58.4176C58.8593 55 59.2174 54.6418 59.2174 54.2001V34.1688H59.3639C59.8057 34.1688 60.1637 33.8107 60.1637 33.369V28.2998C60.1638 27.8581 59.8057 27.4999 59.364 27.4999ZM52.7266 25.217H54.1823V27.5H52.7266V25.217ZM26.4816 25.217H27.9372V27.5H26.4816V25.217ZM22.0997 29.0996H58.5641V32.5691H22.0997V29.0996ZM57.6177 53.4003H23.0463V34.1688H57.6177V53.4003Z" fill="black"/>
<path d="M28.2141 48.7095C30.6153 48.7095 32.5688 46.756 32.5688 44.3548C32.5688 41.9535 30.6153 40 28.2141 40C25.8128 40 23.8593 41.9535 23.8593 44.3548C23.8593 46.756 25.8128 48.7095 28.2141 48.7095ZM28.2141 41.5997C29.7332 41.5997 30.9691 42.8356 30.9691 44.3548C30.9691 45.8739 29.7332 47.1098 28.2141 47.1098C26.6949 47.1098 25.459 45.8739 25.459 44.3548C25.459 42.8356 26.6949 41.5997 28.2141 41.5997Z" fill="black"/>
<path d="M52.7315 48.7095C55.1327 48.7095 57.0862 46.756 57.0862 44.3548C57.0862 41.9535 55.1327 40 52.7315 40C50.3302 40 48.3767 41.9535 48.3767 44.3548C48.3767 46.756 50.3302 48.7095 52.7315 48.7095ZM52.7315 41.5997C54.2507 41.5997 55.4865 42.8356 55.4865 44.3548C55.4865 45.8739 54.2507 47.1098 52.7315 47.1098C51.2123 47.1098 49.9764 45.8739 49.9764 44.3548C49.9764 42.8356 51.2123 41.5997 52.7315 41.5997Z" fill="black"/>
<path d="M37.6838 46.5382C37.9406 46.7347 38.2907 46.7571 38.5706 46.5949L41.2249 45.0567L39.4303 51.7984C39.3167 52.2252 39.5706 52.6634 39.9975 52.777C40.0664 52.7954 40.1357 52.8041 40.2037 52.8041C40.5574 52.8041 40.8809 52.5678 40.9761 52.2098L43.2674 43.6022C43.3507 43.2895 43.2373 42.9576 42.9804 42.7611C42.7235 42.5646 42.3735 42.5422 42.0935 42.7044L39.4393 44.2426L40.5671 40.0058C40.6806 39.5789 40.4267 39.1407 39.9999 39.0271C39.5726 38.9135 39.1348 39.1673 39.0211 39.5943L37.3966 45.6971C37.3134 46.0096 37.4267 46.3417 37.6838 46.5382Z" fill="black"/>
<path d="M69.2886 40.7993L74.4965 45.2632H7.55605L12.764 40.7993C12.9972 40.5993 13.1316 40.3073 13.1316 40C13.1316 39.6927 12.9972 39.4007 12.764 39.2007L7.55605 34.7368H74.4965L69.2886 39.2007C69.0554 39.4007 68.921 39.6927 68.921 40C68.921 40.3073 69.0554 40.5993 69.2886 40.7993Z" fill="white" stroke="black" stroke-width="2" stroke-linejoin="round"/>
<path d="M18.5945 41.9961V43H16.1141V41.9961H18.5945ZM16.5242 37.3125V43H15.282V37.3125H16.5242ZM18.2664 39.5938V40.5625H16.1141V39.5938H18.2664ZM18.5945 37.3125V38.3203H16.1141V37.3125H18.5945ZM23.367 41.9961V43H20.9881V41.9961H23.367ZM21.3983 37.3125V43H20.1561V37.3125H21.3983ZM28.2567 41.9961V43H25.7763V41.9961H28.2567ZM26.1864 37.3125V43H24.9442V37.3125H26.1864ZM27.9286 39.5938V40.5625H25.7763V39.5938H27.9286ZM28.2567 37.3125V38.3203H25.7763V37.3125H28.2567ZM32.5019 41.0898H33.7363C33.7284 41.5169 33.6438 41.8789 33.4823 42.1758C33.3209 42.4727 33.0917 42.6979 32.7948 42.8516C32.498 43.0026 32.1464 43.0781 31.7402 43.0781C31.4172 43.0781 31.1308 43.0234 30.8808 42.9141C30.6308 42.8021 30.4185 42.6406 30.2441 42.4297C30.0722 42.2188 29.942 41.9596 29.8534 41.6523C29.7675 41.3451 29.7245 40.9935 29.7245 40.5977V39.7148C29.7245 39.3216 29.7714 38.9701 29.8652 38.6602C29.9589 38.3503 30.0917 38.0898 30.2636 37.8789C30.4381 37.6654 30.6503 37.5039 30.9003 37.3945C31.1503 37.2852 31.4303 37.2305 31.7402 37.2305C32.1646 37.2305 32.5214 37.3099 32.8105 37.4688C33.0995 37.6276 33.3222 37.8581 33.4784 38.1602C33.6347 38.4622 33.7232 38.8281 33.7441 39.2578H32.5058C32.5084 38.9974 32.4849 38.7943 32.4355 38.6484C32.3886 38.5 32.3092 38.3958 32.1972 38.3359C32.0852 38.2734 31.9329 38.2422 31.7402 38.2422C31.6021 38.2422 31.4836 38.2682 31.3847 38.3203C31.2857 38.3698 31.2063 38.4518 31.1464 38.5664C31.0865 38.681 31.0422 38.832 31.0136 39.0195C30.9849 39.207 30.9706 39.4362 30.9706 39.707V40.5977C30.9706 40.8685 30.9823 41.0977 31.0058 41.2852C31.0292 41.4701 31.0696 41.6211 31.1269 41.7383C31.1842 41.8529 31.2623 41.9362 31.3613 41.9883C31.4602 42.0404 31.5865 42.0664 31.7402 42.0664C31.912 42.0664 32.054 42.0404 32.1659 41.9883C32.2779 41.9336 32.3613 41.8359 32.4159 41.6953C32.4732 41.5547 32.5019 41.3529 32.5019 41.0898ZM37.6064 37.3125V43H36.3681V37.3125H37.6064ZM39.0009 37.3125V38.3203H35.0048V37.3125H39.0009ZM40.5859 37.3125H42.4727C42.8529 37.3125 43.1797 37.3776 43.4531 37.5078C43.7266 37.638 43.9362 37.8307 44.082 38.0859C44.2305 38.3411 44.3047 38.6562 44.3047 39.0312C44.3047 39.349 44.263 39.6172 44.1797 39.8359C44.0964 40.0521 43.9792 40.2318 43.8281 40.375C43.6771 40.5182 43.4987 40.6341 43.293 40.7227L42.8984 40.9531H41.3945L41.3906 39.9492H42.4414C42.582 39.9492 42.6979 39.9167 42.7891 39.8516C42.8802 39.7865 42.9479 39.694 42.9922 39.5742C43.0391 39.4518 43.0625 39.3073 43.0625 39.1406C43.0625 38.9688 43.0404 38.8216 42.9961 38.6992C42.9544 38.5768 42.8906 38.4831 42.8047 38.418C42.7214 38.3529 42.6107 38.3203 42.4727 38.3203H41.8281V43H40.5859V37.3125ZM43.1406 43L42.1133 40.4727L43.418 40.4688L44.4688 42.9414V43H43.1406ZM47.3233 37.3125V43H46.085V37.3125H47.3233ZM51.8731 41.0898H53.1075C53.0997 41.5169 53.0151 41.8789 52.8536 42.1758C52.6921 42.4727 52.463 42.6979 52.1661 42.8516C51.8692 43.0026 51.5177 43.0781 51.1114 43.0781C50.7885 43.0781 50.502 43.0234 50.252 42.9141C50.002 42.8021 49.7898 42.6406 49.6153 42.4297C49.4434 42.2188 49.3132 41.9596 49.2247 41.6523C49.1388 41.3451 49.0958 40.9935 49.0958 40.5977V39.7148C49.0958 39.3216 49.1427 38.9701 49.2364 38.6602C49.3302 38.3503 49.463 38.0898 49.6348 37.8789C49.8093 37.6654 50.0216 37.5039 50.2716 37.3945C50.5216 37.2852 50.8015 37.2305 51.1114 37.2305C51.5359 37.2305 51.8927 37.3099 52.1817 37.4688C52.4708 37.6276 52.6934 37.8581 52.8497 38.1602C53.0059 38.4622 53.0945 38.8281 53.1153 39.2578H51.877C51.8796 38.9974 51.8562 38.7943 51.8067 38.6484C51.7598 38.5 51.6804 38.3958 51.5684 38.3359C51.4565 38.2734 51.3041 38.2422 51.1114 38.2422C50.9734 38.2422 50.8549 38.2682 50.7559 38.3203C50.657 38.3698 50.5776 38.4518 50.5177 38.5664C50.4578 38.681 50.4135 38.832 50.3848 39.0195C50.3562 39.207 50.3419 39.4362 50.3419 39.707V40.5977C50.3419 40.8685 50.3536 41.0977 50.377 41.2852C50.4005 41.4701 50.4408 41.6211 50.4981 41.7383C50.5554 41.8529 50.6335 41.9362 50.7325 41.9883C50.8315 42.0404 50.9578 42.0664 51.1114 42.0664C51.2833 42.0664 51.4252 42.0404 51.5372 41.9883C51.6492 41.9336 51.7325 41.8359 51.7872 41.6953C51.8445 41.5547 51.8731 41.3529 51.8731 41.0898ZM56.0167 37.3125V43H54.7784V37.3125H56.0167ZM60.1408 37.3125V43H58.9025V37.3125H60.1408ZM61.5353 37.3125V38.3203H57.5392V37.3125H61.5353ZM64.1477 37.3125L64.9445 39.8281L65.7414 37.3125H67.0812L65.5734 40.9453V43H64.3195V40.9453L62.8117 37.3125H64.1477Z" fill="black"/>
</svg>
