<svg width="81" height="80" viewBox="0 0 81 80" fill="none" xmlns="http://www.w3.org/2000/svg">
<path d="M40.5 80C62.5914 80 80.5 62.0914 80.5 40C80.5 17.9086 62.5914 0 40.5 0C18.4086 0 0.5 17.9086 0.5 40C0.5 62.0914 18.4086 80 40.5 80Z" fill="#E4E4E4"/>
<path d="M41.0263 67.8947C56.1415 67.8947 68.3947 55.6415 68.3947 40.5263C68.3947 25.4112 56.1415 13.1579 41.0263 13.1579C25.9112 13.1579 13.6579 25.4112 13.6579 40.5263C13.6579 55.6415 25.9112 67.8947 41.0263 67.8947Z" fill="white" stroke="black" stroke-width="3"/>
<path d="M45.7903 22H44.5V23.2903H45.7903V22Z" fill="black"/>
<path d="M40.6613 52C37.8154 52 35.5 54.3154 35.5 57.1613C35.5 60.0071 37.8154 62.3225 40.6613 62.3225C43.5071 62.3225 45.8225 60.0071 45.8225 57.1613C45.8225 54.3154 43.5071 52 40.6613 52ZM40.6613 61.0322C38.5264 61.0322 36.7903 59.2961 36.7903 57.1613C36.7903 55.0264 38.5264 53.2903 40.6613 53.2903C42.7961 53.2903 44.5322 55.0264 44.5322 57.1613C44.5322 59.2961 42.7961 61.0322 40.6613 61.0322Z" fill="black"/>
<path d="M47.5616 30L47.7017 30.2694L49.012 32.7903H52.5161V20.2692L52.0101 19.9355C51.9961 19.9281 51.9853 19.922 51.9794 19.9187L51.9778 19.9178C51.9555 19.9051 51.9304 19.8901 51.9051 19.8747C51.8725 19.8549 51.8316 19.8296 51.7852 19.801C51.7603 19.7856 51.7338 19.7692 51.7061 19.7521C51.5443 19.6524 51.3192 19.5154 51.0354 19.3532C50.4676 19.0288 49.6633 18.6031 48.6669 18.1799C46.6718 17.3325 43.9185 16.5 40.7582 16.5M47.5616 30L40.7582 16.5M47.5616 30H47.957L49.1401 32.234L49.281 32.5H49.582H51.7259H52.2259V32V25.7903V25.2903H51.7259H29.7905H29.2905V25.7903V32V32.5H29.7905H31.9341H32.2351L32.376 32.234L33.559 30H33.9544L33.8144 30.2694M47.5616 30L33.8144 30.2694M40.7582 16.5C43.462 16.5 45.9391 17.2912 47.892 18.1241M40.7582 16.5L47.892 18.1241M33.8144 30.2694L32.5041 32.7903H29V20.2692L29.5059 19.9354C29.52 19.9281 29.5308 19.922 29.5367 19.9187L29.5382 19.9178C29.5605 19.9051 29.5857 19.8901 29.611 19.8747C29.6436 19.8549 29.6845 19.8296 29.7309 19.8009C29.7558 19.7855 29.7823 19.7692 29.8099 19.7521C29.9718 19.6524 30.1968 19.5154 30.4807 19.3532C31.0485 19.0288 31.8527 18.6031 32.8492 18.1799C34.8443 17.3325 37.5977 16.5 40.758 16.5C38.0542 16.5 35.5772 17.2912 33.6243 18.1241C32.6466 18.5411 31.7939 18.9715 31.1091 19.3211C31.0706 19.3407 31.0328 19.36 30.9956 19.379C30.3501 19.7087 29.9066 19.9352 29.6339 20.0252L29.2905 20.1384V20.5V22V22.5H29.7905H42.8387V22.7903H29.7905H29.2905V23.2903V24.5V25H29.7905H51.7259H52.2259V24.5V23.2903V22.7903H51.7259H47.7097V22.5H51.7259H52.2259V22V20.5V20.1384M33.8144 30.2694L52.2259 20.1384M52.2259 20.1384L51.8825 20.0252M52.2259 20.1384L51.8825 20.0252M51.8825 20.0252C51.6097 19.9352 51.166 19.7086 50.5204 19.3789M51.8825 20.0252L50.5204 19.3789M50.5204 19.3789C50.4834 19.3599 50.4456 19.3407 50.4072 19.3211M50.5204 19.3789L50.4072 19.3211M50.4072 19.3211C49.7224 18.9715 48.8697 18.5411 47.892 18.1241M50.4072 19.3211L47.892 18.1241M46.9114 52.9516H50.5804V62.2741H46.2231H45.9929L45.8432 62.449C44.4871 64.0334 42.7402 64.8548 40.758 64.8548C38.7758 64.8548 37.029 64.0334 35.6727 62.449L35.5231 62.2741H35.2929H30.9355V52.9516H34.6045H34.8746L35.0226 52.7258C36.1742 50.9696 36.7749 49.77 37.0806 48.7547C37.3872 47.7365 37.3871 46.931 37.3871 46.02V46.006L37.7579 30.512L37.758 30.508L37.6775 45.9974V46C37.6775 46.9915 37.6755 47.7808 37.3628 48.8147C37.047 49.8588 36.4046 51.1792 35.0725 53.1773C35.0724 53.1774 35.0724 53.1775 35.0724 53.1775L35.0294 53.242H31.7257H31.2257V53.742V56.9677V57.4677H31.7257H33.8064V57.758H31.7257H31.2257V58.258V61.4839V61.9839H31.7257H35.6664L35.7101 62.0386C37.0329 63.6993 38.7398 64.5645 40.7579 64.5645C42.776 64.5645 44.4829 63.6991 45.8057 62.0387L45.8494 61.9839H49.7901H50.2901V61.4839V58.258V57.758H49.7901H47.7097V57.4677H49.7901H50.2901V56.9677V53.742V53.242H49.7901H46.4866L46.4436 53.1775C46.4435 53.1775 46.4435 53.1774 46.4435 53.1773C45.1114 51.1793 44.469 49.8589 44.1532 48.8148C43.8405 47.7809 43.8385 46.9915 43.8385 46L43.8385 45.9974L43.7581 30.508L43.7582 30.512L44.1288 46.006V46.02C44.1288 46.931 44.1288 47.7365 44.4354 48.7547C44.7411 49.77 45.3418 50.9696 46.4933 52.7258L46.6414 52.9516H46.9114Z" fill="black" stroke="black"/>
<path d="M69.2886 40.7993L74.4965 45.2632H7.55606L12.764 40.7993C12.9973 40.5993 13.1316 40.3073 13.1316 40C13.1316 39.6927 12.9973 39.4007 12.764 39.2007L7.55606 34.7368H74.4965L69.2886 39.2007C69.0554 39.4007 68.9211 39.6927 68.9211 40C68.9211 40.3073 69.0554 40.5993 69.2886 40.7993Z" fill="white" stroke="black" stroke-width="2" stroke-linejoin="round"/>
<path d="M19.9405 41.8706V43H17.15V41.8706H19.9405ZM17.6114 36.6016V43H16.214V36.6016H17.6114ZM19.5714 39.168V40.2578H17.15V39.168H19.5714ZM19.9405 36.6016V37.7354H17.15V36.6016H19.9405ZM29.7468 36.6016V43H28.3801L26.5696 39.0186V43H25.2073V36.6016H26.574L28.3889 40.605V36.6016H29.7468ZM39.7201 39.6074V42.2661C39.6264 42.3628 39.4872 42.4756 39.3027 42.6045C39.121 42.7334 38.8866 42.8462 38.5995 42.9429C38.3154 43.0396 37.974 43.0879 37.5756 43.0879C37.2153 43.0879 36.8886 43.0322 36.5956 42.9209C36.3056 42.8096 36.0566 42.6411 35.8486 42.4155C35.6435 42.187 35.4853 41.9014 35.3739 41.5586C35.2655 41.2158 35.2113 40.8086 35.2113 40.3369V39.2646C35.2113 38.7988 35.2655 38.3931 35.3739 38.0474C35.4823 37.7017 35.6376 37.4146 35.8398 37.186C36.0419 36.9575 36.2821 36.7876 36.5605 36.6763C36.8388 36.5649 37.1523 36.5093 37.5009 36.5093C37.996 36.5093 38.4032 36.5928 38.7226 36.7598C39.0419 36.9268 39.2821 37.1699 39.4433 37.4893C39.6044 37.8086 39.6952 38.1997 39.7157 38.6626H38.3754C38.3578 38.4048 38.3168 38.2012 38.2524 38.0518C38.1908 37.9023 38.1015 37.7954 37.9843 37.731C37.87 37.6665 37.7221 37.6343 37.5404 37.6343C37.3881 37.6343 37.2533 37.6636 37.1362 37.7222C37.0219 37.7778 36.9252 37.8701 36.8461 37.999C36.7699 38.125 36.7128 38.292 36.6747 38.5C36.6366 38.7051 36.6176 38.957 36.6176 39.2559V40.3369C36.6176 40.6357 36.6366 40.8892 36.6747 41.0972C36.7157 41.3022 36.7773 41.4692 36.8593 41.5981C36.9443 41.7241 37.0527 41.8164 37.1845 41.875C37.3193 41.9307 37.4789 41.9585 37.6635 41.9585C37.7983 41.9585 37.9067 41.9438 37.9887 41.9146C38.0737 41.8853 38.1425 41.8516 38.1952 41.8135C38.2509 41.7754 38.2948 41.749 38.3271 41.7344V40.6226H37.4877V39.6074H39.7201ZM46.6392 36.6016V43H45.2462V36.6016H46.6392ZM56.7883 36.6016V43H55.4216L53.6111 39.0186V43H52.2488V36.6016H53.6155L55.4304 40.605V36.6016H56.7883ZM66.0585 41.8706V43H63.268V41.8706H66.0585ZM63.7294 36.6016V43H62.3319V36.6016H63.7294ZM65.6894 39.168V40.2578H63.268V39.168H65.6894ZM66.0585 36.6016V37.7354H63.268V36.6016H66.0585Z" fill="black"/>
</svg>
