<svg width="81" height="80" viewBox="0 0 81 80" fill="none" xmlns="http://www.w3.org/2000/svg">
<path d="M40.5 80C62.5914 80 80.5 62.0914 80.5 40C80.5 17.9086 62.5914 0 40.5 0C18.4086 0 0.5 17.9086 0.5 40C0.5 62.0914 18.4086 80 40.5 80Z" fill="#E4E4E4"/>
<path d="M41.0263 67.8947C56.1415 67.8947 68.3947 55.6415 68.3947 40.5263C68.3947 25.4112 56.1415 13.1579 41.0263 13.1579C25.9112 13.1579 13.6579 25.4112 13.6579 40.5263C13.6579 55.6415 25.9112 67.8947 41.0263 67.8947Z" fill="white" stroke="black" stroke-width="3"/>
<path d="M36.3162 29.25L31.5833 36.3509L31.5834 57.4583H50.0834L50.0833 29.25H36.3162ZM34.6667 26.1667H51.625C52.0339 26.1667 52.426 26.3291 52.7151 26.6182C53.0042 26.9073 53.1667 27.2995 53.1667 27.7083L53.1667 59C53.1667 59.4089 53.0043 59.801 52.7152 60.0901C52.4261 60.3792 52.0339 60.5417 51.6251 60.5417H30.0417C29.6329 60.5417 29.2407 60.3792 28.9516 60.0901C28.6625 59.801 28.5001 59.4089 28.5001 59L28.5 35.4167L34.6667 26.1667ZM42.375 20H50.0833C50.4922 20 50.8843 20.1624 51.1735 20.4515C51.4626 20.7407 51.625 21.1328 51.625 21.5417V24.625H40.8333V21.5417C40.8333 21.1328 40.9958 20.7407 41.2849 20.4515C41.574 20.1624 41.9661 20 42.375 20ZM34.6667 36.9583H37.75L37.7501 54.375H34.6667L34.6667 36.9583Z" fill="black"/>
<path d="M69.2886 40.7993L74.4965 45.2632H7.55606L12.764 40.7993C12.9973 40.5993 13.1316 40.3073 13.1316 40C13.1316 39.6927 12.9973 39.4007 12.764 39.2007L7.55606 34.7368H74.4965L69.2886 39.2007C69.0554 39.4007 68.9211 39.6927 68.9211 40C68.9211 40.3073 69.0554 40.5993 69.2886 40.7993Z" fill="white" stroke="black" stroke-width="2" stroke-linejoin="round"/>
<path d="M19.4688 39.7227V40.6289C19.4688 41.0326 19.4193 41.388 19.3203 41.6953C19.2214 42 19.0794 42.2552 18.8945 42.4609C18.7122 42.6667 18.4935 42.8216 18.2383 42.9258C17.9857 43.0273 17.7057 43.0781 17.3984 43.0781C17.0885 43.0781 16.806 43.0273 16.5508 42.9258C16.2956 42.8216 16.0755 42.6667 15.8906 42.4609C15.7057 42.2552 15.5625 42 15.4609 41.6953C15.362 41.388 15.3125 41.0326 15.3125 40.6289V39.7227C15.3125 39.3138 15.362 38.9544 15.4609 38.6445C15.5625 38.332 15.7044 38.0729 15.8867 37.8672C16.0716 37.6589 16.2904 37.5013 16.543 37.3945C16.7982 37.2878 17.0807 37.2344 17.3906 37.2344C17.7005 37.2344 17.9818 37.2878 18.2344 37.3945C18.4896 37.5013 18.7083 37.6589 18.8906 37.8672C19.0755 38.0729 19.2174 38.332 19.3164 38.6445C19.418 38.9544 19.4688 39.3138 19.4688 39.7227ZM18.2227 40.6289V39.7148C18.2227 39.4518 18.2044 39.2279 18.168 39.043C18.1341 38.8581 18.082 38.707 18.0117 38.5898C17.9414 38.4727 17.8542 38.3867 17.75 38.332C17.6484 38.2773 17.5286 38.25 17.3906 38.25C17.25 38.25 17.1276 38.2773 17.0234 38.332C16.9193 38.3867 16.832 38.4727 16.7617 38.5898C16.694 38.707 16.6432 38.8581 16.6094 39.043C16.5781 39.2279 16.5625 39.4518 16.5625 39.7148V40.6289C16.5625 40.8841 16.5794 41.1029 16.6133 41.2852C16.6471 41.4674 16.6992 41.6159 16.7695 41.7305C16.8398 41.8451 16.9271 41.9297 17.0312 41.9844C17.1354 42.0391 17.2578 42.0664 17.3984 42.0664C17.5339 42.0664 17.6523 42.0391 17.7539 41.9844C17.8581 41.9297 17.944 41.8451 18.0117 41.7305C18.082 41.6159 18.1341 41.4674 18.168 41.2852C18.2044 41.1029 18.2227 40.8841 18.2227 40.6289ZM22.3273 37.3125V43H21.0891V37.3125H22.3273ZM27.2445 41.9961V43H24.8656V41.9961H27.2445ZM25.2758 37.3125V43H24.0336V37.3125H25.2758ZM31.8406 37.3125H32.8836L33.9148 41.2266L34.9422 37.3125H35.9227L34.3484 43H33.4773L31.8406 37.3125ZM31.3055 37.3125H32.3484L32.5281 41.3555V43H31.3055V37.3125ZM35.4773 37.3125H36.5203V43H35.3016V41.3555L35.4773 37.3125ZM40.3516 38.418L39.2109 43H37.8867L39.6562 37.3125H40.4805L40.3516 38.418ZM41.25 43L40.1055 38.418L39.957 37.3125H40.7969L42.5742 43H41.25ZM41.293 40.8789V41.8828H38.7734V40.8789H41.293ZM46.4562 41.0898H47.6906C47.6828 41.5169 47.5982 41.8789 47.4367 42.1758C47.2753 42.4727 47.0461 42.6979 46.7492 42.8516C46.4523 43.0026 46.1008 43.0781 45.6945 43.0781C45.3716 43.0781 45.0852 43.0234 44.8352 42.9141C44.5852 42.8021 44.3729 42.6406 44.1984 42.4297C44.0266 42.2188 43.8964 41.9596 43.8078 41.6523C43.7219 41.3451 43.6789 40.9935 43.6789 40.5977V39.7148C43.6789 39.3216 43.7258 38.9701 43.8195 38.6602C43.9133 38.3503 44.0461 38.0898 44.218 37.8789C44.3924 37.6654 44.6047 37.5039 44.8547 37.3945C45.1047 37.2852 45.3846 37.2305 45.6945 37.2305C46.119 37.2305 46.4758 37.3099 46.7648 37.4688C47.0539 37.6276 47.2766 37.8581 47.4328 38.1602C47.5891 38.4622 47.6776 38.8281 47.6984 39.2578H46.4602C46.4628 38.9974 46.4393 38.7943 46.3898 38.6484C46.343 38.5 46.2635 38.3958 46.1516 38.3359C46.0396 38.2734 45.8872 38.2422 45.6945 38.2422C45.5565 38.2422 45.438 38.2682 45.3391 38.3203C45.2401 38.3698 45.1607 38.4518 45.1008 38.5664C45.0409 38.681 44.9966 38.832 44.968 39.0195C44.9393 39.207 44.925 39.4362 44.925 39.707V40.5977C44.925 40.8685 44.9367 41.0977 44.9602 41.2852C44.9836 41.4701 45.024 41.6211 45.0812 41.7383C45.1385 41.8529 45.2167 41.9362 45.3156 41.9883C45.4146 42.0404 45.5409 42.0664 45.6945 42.0664C45.8664 42.0664 46.0083 42.0404 46.1203 41.9883C46.2323 41.9336 46.3156 41.8359 46.3703 41.6953C46.4276 41.5547 46.4562 41.3529 46.4562 41.0898ZM52.3227 39.5938V40.5938H50.0023V39.5938H52.3227ZM50.3852 37.3125V43H49.143V37.3125H50.3852ZM53.1898 37.3125V43H51.9555V37.3125H53.1898ZM56.1383 37.3125V43H54.9V37.3125H56.1383ZM61.8797 37.3125V43H60.6648L59.0555 39.4609V43H57.8445V37.3125H59.0594L60.6727 40.8711V37.3125H61.8797ZM66.8398 41.9961V43H64.3594V41.9961H66.8398ZM64.7695 37.3125V43H63.5273V37.3125H64.7695ZM66.5117 39.5938V40.5625H64.3594V39.5938H66.5117ZM66.8398 37.3125V38.3203H64.3594V37.3125H66.8398Z" fill="black"/>
</svg>
