<svg width="81" height="80" viewBox="0 0 81 80" fill="none" xmlns="http://www.w3.org/2000/svg">
<path d="M40.5 80C62.5914 80 80.5 62.0914 80.5 40C80.5 17.9086 62.5914 0 40.5 0C18.4086 0 0.5 17.9086 0.5 40C0.5 62.0914 18.4086 80 40.5 80Z" fill="#E4E4E4"/>
<path d="M41.0263 67.8947C56.1415 67.8947 68.3947 55.6415 68.3947 40.5263C68.3947 25.4112 56.1415 13.1579 41.0263 13.1579C25.9111 13.1579 13.6579 25.4112 13.6579 40.5263C13.6579 55.6415 25.9111 67.8947 41.0263 67.8947Z" fill="white" stroke="black" stroke-width="3"/>
<path d="M59.0083 27.7622C58.5356 27.7622 58.1526 28.1412 58.1526 28.6088V33.6325H56.4128V29.3889C56.4128 28.9213 56.0298 28.5423 55.5571 28.5423H51.5871L50.8476 26.1032C50.739 25.7451 50.4058 25.4999 50.0279 25.4999H43.9834V23.3581H47.7895C48.2621 23.3581 48.6452 22.9791 48.6452 22.5115V19.6853C48.6452 19.2177 48.2621 18.8387 47.7895 18.8387H35.5283C35.0557 18.8387 34.6726 19.2177 34.6726 19.6853V22.5116C34.6726 22.9792 35.0557 23.3582 35.5283 23.3582H39.3344V25.5H30.5194C30.2059 25.5 29.9175 25.6695 29.7678 25.9419L28.3374 28.5424H24.9902C24.5176 28.5424 24.1345 28.9214 24.1345 29.389V33.6326H22.2114V27.5803C22.2114 27.1127 21.8283 26.7337 21.3557 26.7337C20.8831 26.7337 20.5 27.1127 20.5 27.5803L20.5 52.9315C20.5 53.3991 20.8831 53.7781 21.3557 53.7781C21.8283 53.7781 22.2114 53.3991 22.2114 52.9315V46.8793H24.1345V51.3605C24.1345 51.8281 24.5176 52.2071 24.9902 52.2071H32.1149L35.3723 56.3653C35.5344 56.5723 35.7841 56.6933 36.0487 56.6933H55.5571C56.0298 56.6933 56.4128 56.3144 56.4128 55.8468V46.8794H58.1526V51.903C58.1526 52.3706 58.5356 52.7496 59.0083 52.7496C61.485 52.7496 63.5 50.7561 63.5 48.3058V32.2064C63.5 29.7558 61.485 27.7622 59.0083 27.7622ZM22.2114 40.4927V38.4869H24.1345V40.4927H22.2114ZM36.384 20.5318H46.9337V21.665H36.384V20.5318ZM41.0459 23.3582H42.272V25.5H41.0459V23.3582ZM25.8459 30.2354H26.4539V50.5138H25.8459V30.2354ZM33.2107 50.8418C33.0486 50.6349 32.7989 50.5138 32.5343 50.5138H28.1653V30.2354H28.846C29.1595 30.2354 29.4478 30.0659 29.5976 29.7935L31.0279 27.1931H49.3912L50.1307 29.6321C50.2393 29.9902 50.5724 30.2354 50.9504 30.2354H52.4859V55H36.4681L33.2107 50.8418ZM54.7014 55H54.1973V30.2354H54.7014V55ZM56.4128 40.4927V38.4869H58.1526V40.4927H56.4128ZM61.7886 48.3056C61.7886 49.5271 60.9797 50.5652 59.864 50.9231V29.5887C60.9797 29.9465 61.7886 30.9846 61.7886 32.2062V48.3056Z" fill="black"/>
<path d="M69.2886 40.7993L74.4965 45.2632H7.55605L12.764 40.7993C12.9972 40.5993 13.1316 40.3073 13.1316 40C13.1316 39.6927 12.9972 39.4007 12.764 39.2007L7.55605 34.7368H74.4965L69.2886 39.2007C69.0554 39.4007 68.921 39.6927 68.921 40C68.921 40.3073 69.0554 40.5993 69.2886 40.7993Z" fill="white" stroke="black" stroke-width="2" stroke-linejoin="round"/>
<path d="M18.1128 41.4961C18.1128 41.3997 18.1037 41.3138 18.0855 41.2383C18.0672 41.1602 18.0321 41.0885 17.98 41.0234C17.9279 40.9557 17.8498 40.888 17.7456 40.8203C17.6415 40.7526 17.5047 40.6823 17.3355 40.6094C17.1271 40.5234 16.924 40.4297 16.7261 40.3281C16.5308 40.224 16.355 40.1042 16.1987 39.9688C16.0425 39.8307 15.9175 39.6693 15.8237 39.4844C15.73 39.2969 15.6831 39.0781 15.6831 38.8281C15.6831 38.5859 15.7287 38.3672 15.8198 38.1719C15.911 37.974 16.0386 37.806 16.2027 37.668C16.3667 37.5273 16.5607 37.4206 16.7847 37.3477C17.0086 37.2721 17.2547 37.2344 17.523 37.2344C17.8849 37.2344 18.2014 37.3086 18.4722 37.457C18.743 37.6029 18.954 37.8086 19.105 38.0742C19.256 38.3372 19.3316 38.6445 19.3316 38.9961H18.0972C18.0972 38.8424 18.0764 38.7083 18.0347 38.5938C17.993 38.4766 17.9279 38.3854 17.8394 38.3203C17.7534 38.2526 17.6402 38.2188 17.4995 38.2188C17.3693 38.2188 17.2612 38.2461 17.1753 38.3008C17.0894 38.3555 17.0256 38.4297 16.9839 38.5234C16.9422 38.6172 16.9214 38.7214 16.9214 38.8359C16.9214 38.9271 16.9422 39.0078 16.9839 39.0781C17.0282 39.1484 17.0868 39.2135 17.1597 39.2734C17.2352 39.3333 17.3237 39.3906 17.4253 39.4453C17.5295 39.5 17.6415 39.5521 17.7612 39.6016C18.0165 39.7031 18.243 39.8138 18.4409 39.9336C18.6415 40.0534 18.8081 40.1888 18.9409 40.3398C19.0764 40.4883 19.1779 40.6576 19.2456 40.8477C19.3159 41.0352 19.3511 41.2487 19.3511 41.4883C19.3511 41.7331 19.3094 41.9544 19.2261 42.1523C19.1428 42.3477 19.023 42.5143 18.8667 42.6523C18.7131 42.7904 18.5256 42.8958 18.3042 42.9688C18.0829 43.0417 17.8355 43.0781 17.562 43.0781C17.3042 43.0781 17.0555 43.0417 16.8159 42.9688C16.5764 42.8932 16.3628 42.7786 16.1753 42.625C15.9904 42.4714 15.8433 42.2747 15.7339 42.0352C15.6245 41.7956 15.5698 41.5104 15.5698 41.1797H16.812C16.812 41.349 16.8264 41.4935 16.855 41.6133C16.8862 41.7305 16.9331 41.8242 16.9956 41.8945C17.0607 41.9648 17.1402 42.0169 17.2339 42.0508C17.3303 42.082 17.4448 42.0977 17.5777 42.0977C17.7131 42.0977 17.8198 42.0703 17.898 42.0156C17.9761 41.9609 18.0308 41.8893 18.062 41.8008C18.0959 41.7096 18.1128 41.6081 18.1128 41.4961ZM26.1062 41.9961V43H23.6258V41.9961H26.1062ZM24.0359 37.3125V43H22.7937V37.3125H24.0359ZM25.7781 39.5938V40.5625H23.6258V39.5938H25.7781ZM26.1062 37.3125V38.3203H23.6258V37.3125H26.1062ZM29.4317 37.3125H31.3184C31.6986 37.3125 32.0255 37.3776 32.2989 37.5078C32.5723 37.638 32.782 37.8307 32.9278 38.0859C33.0763 38.3411 33.1505 38.6562 33.1505 39.0312C33.1505 39.349 33.1088 39.6172 33.0255 39.8359C32.9421 40.0521 32.8249 40.2318 32.6739 40.375C32.5229 40.5182 32.3445 40.6341 32.1388 40.7227L31.7442 40.9531H30.2403L30.2364 39.9492H31.2872C31.4278 39.9492 31.5437 39.9167 31.6348 39.8516C31.726 39.7865 31.7937 39.694 31.838 39.5742C31.8848 39.4518 31.9083 39.3073 31.9083 39.1406C31.9083 38.9688 31.8861 38.8216 31.8419 38.6992C31.8002 38.5768 31.7364 38.4831 31.6505 38.418C31.5671 38.3529 31.4565 38.3203 31.3184 38.3203H30.6739V43H29.4317V37.3125ZM31.9864 43L30.9591 40.4727L32.2638 40.4688L33.3145 42.9414V43H31.9864ZM38.3783 41.7188L39.3587 37.3125H40.722L39.1127 43H38.2142L38.3783 41.7188ZM37.5502 37.3125L38.5306 41.7188L38.7025 43H37.7962L36.1947 37.3125H37.5502ZM45.2194 37.3125V43H43.9811V37.3125H45.2194ZM51.5292 41.0898H52.7636C52.7558 41.5169 52.6711 41.8789 52.5097 42.1758C52.3482 42.4727 52.1191 42.6979 51.8222 42.8516C51.5253 43.0026 51.1737 43.0781 50.7675 43.0781C50.4446 43.0781 50.1581 43.0234 49.9081 42.9141C49.6581 42.8021 49.4459 42.6406 49.2714 42.4297C49.0995 42.2188 48.9693 41.9596 48.8808 41.6523C48.7948 41.3451 48.7519 40.9935 48.7519 40.5977V39.7148C48.7519 39.3216 48.7987 38.9701 48.8925 38.6602C48.9862 38.3503 49.1191 38.0898 49.2909 37.8789C49.4654 37.6654 49.6777 37.5039 49.9277 37.3945C50.1777 37.2852 50.4576 37.2305 50.7675 37.2305C51.192 37.2305 51.5487 37.3099 51.8378 37.4688C52.1269 37.6276 52.3495 37.8581 52.5058 38.1602C52.662 38.4622 52.7506 38.8281 52.7714 39.2578H51.5331C51.5357 38.9974 51.5123 38.7943 51.4628 38.6484C51.4159 38.5 51.3365 38.3958 51.2245 38.3359C51.1126 38.2734 50.9602 38.2422 50.7675 38.2422C50.6295 38.2422 50.511 38.2682 50.412 38.3203C50.3131 38.3698 50.2336 38.4518 50.1737 38.5664C50.1139 38.681 50.0696 38.832 50.0409 39.0195C50.0123 39.207 49.998 39.4362 49.998 39.707V40.5977C49.998 40.8685 50.0097 41.0977 50.0331 41.2852C50.0566 41.4701 50.0969 41.6211 50.1542 41.7383C50.2115 41.8529 50.2896 41.9362 50.3886 41.9883C50.4876 42.0404 50.6139 42.0664 50.7675 42.0664C50.9394 42.0664 51.0813 42.0404 51.1933 41.9883C51.3053 41.9336 51.3886 41.8359 51.4433 41.6953C51.5006 41.5547 51.5292 41.3529 51.5292 41.0898ZM59.4484 41.9961V43H56.968V41.9961H59.4484ZM57.3781 37.3125V43H56.1359V37.3125H57.3781ZM59.1203 39.5938V40.5625H56.968V39.5938H59.1203ZM59.4484 37.3125V38.3203H56.968V37.3125H59.4484ZM65.1684 41.4961C65.1684 41.3997 65.1593 41.3138 65.1411 41.2383C65.1229 41.1602 65.0877 41.0885 65.0356 41.0234C64.9835 40.9557 64.9054 40.888 64.8013 40.8203C64.6971 40.7526 64.5604 40.6823 64.3911 40.6094C64.1828 40.5234 63.9796 40.4297 63.7817 40.3281C63.5864 40.224 63.4106 40.1042 63.2544 39.9688C63.0981 39.8307 62.9731 39.6693 62.8794 39.4844C62.7856 39.2969 62.7388 39.0781 62.7388 38.8281C62.7388 38.5859 62.7843 38.3672 62.8755 38.1719C62.9666 37.974 63.0942 37.806 63.2583 37.668C63.4223 37.5273 63.6164 37.4206 63.8403 37.3477C64.0643 37.2721 64.3104 37.2344 64.5786 37.2344C64.9406 37.2344 65.257 37.3086 65.5278 37.457C65.7986 37.6029 66.0096 37.8086 66.1606 38.0742C66.3117 38.3372 66.3872 38.6445 66.3872 38.9961H65.1528C65.1528 38.8424 65.132 38.7083 65.0903 38.5938C65.0486 38.4766 64.9835 38.3854 64.895 38.3203C64.8091 38.2526 64.6958 38.2188 64.5552 38.2188C64.4249 38.2188 64.3169 38.2461 64.2309 38.3008C64.145 38.3555 64.0812 38.4297 64.0395 38.5234C63.9979 38.6172 63.977 38.7214 63.977 38.8359C63.977 38.9271 63.9979 39.0078 64.0395 39.0781C64.0838 39.1484 64.1424 39.2135 64.2153 39.2734C64.2908 39.3333 64.3794 39.3906 64.4809 39.4453C64.5851 39.5 64.6971 39.5521 64.8169 39.6016C65.0721 39.7031 65.2986 39.8138 65.4966 39.9336C65.6971 40.0534 65.8638 40.1888 65.9966 40.3398C66.132 40.4883 66.2335 40.6576 66.3013 40.8477C66.3716 41.0352 66.4067 41.2487 66.4067 41.4883C66.4067 41.7331 66.3651 41.9544 66.2817 42.1523C66.1984 42.3477 66.0786 42.5143 65.9223 42.6523C65.7687 42.7904 65.5812 42.8958 65.3598 42.9688C65.1385 43.0417 64.8911 43.0781 64.6177 43.0781C64.3598 43.0781 64.1111 43.0417 63.8716 42.9688C63.632 42.8932 63.4184 42.7786 63.2309 42.625C63.046 42.4714 62.8989 42.2747 62.7895 42.0352C62.6802 41.7956 62.6255 41.5104 62.6255 41.1797H63.8677C63.8677 41.349 63.882 41.4935 63.9106 41.6133C63.9419 41.7305 63.9888 41.8242 64.0513 41.8945C64.1164 41.9648 64.1958 42.0169 64.2895 42.0508C64.3859 42.082 64.5005 42.0977 64.6333 42.0977C64.7687 42.0977 64.8755 42.0703 64.9536 42.0156C65.0317 41.9609 65.0864 41.8893 65.1177 41.8008C65.1515 41.7096 65.1684 41.6081 65.1684 41.4961Z" fill="black"/>
</svg>
