<svg width="81" height="80" viewBox="0 0 81 80" fill="none" xmlns="http://www.w3.org/2000/svg">
<path d="M40.5 80C62.5914 80 80.5 62.0914 80.5 40C80.5 17.9086 62.5914 0 40.5 0C18.4086 0 0.5 17.9086 0.5 40C0.5 62.0914 18.4086 80 40.5 80Z" fill="#E4E4E4"/>
<path d="M41.0263 67.8947C56.1415 67.8947 68.3947 55.6415 68.3947 40.5263C68.3947 25.4112 56.1415 13.1579 41.0263 13.1579C25.9112 13.1579 13.6579 25.4112 13.6579 40.5263C13.6579 55.6415 25.9112 67.8947 41.0263 67.8947Z" fill="white" stroke="black" stroke-width="3"/>
<path d="M29.5626 22.1053C29.5626 22.1053 27.1073 26.8066 27.3305 29.9408C27.3305 30.6124 27.5538 31.0602 27.7769 31.508L35.3661 41.1345L32.018 45.1642C31.3483 44.9404 30.6787 44.7165 29.7859 44.4926C25.7681 44.2687 22.1966 47.6268 22.643 51.8804C22.8663 54.5669 24.8752 57.0296 27.5538 57.7012C30.4555 58.3727 33.134 57.2534 34.6965 55.0146L40.5 47.6268L46.3035 55.0146C47.866 57.2534 50.5445 58.3727 53.4462 57.7012C56.1247 57.0296 57.9105 54.5669 58.3569 51.8804C58.8033 47.6268 55.2319 44.2687 51.2141 44.7165C50.5445 44.7165 49.6517 44.9404 48.982 45.3881L45.6339 41.3584L53.223 31.7318C53.4462 31.2841 53.6695 30.8363 53.6695 30.1647C53.8926 27.0305 51.4373 22.3292 51.4373 22.3292L40.5 35.0899L29.5626 22.1053ZM32.9108 51.6565C32.6876 53.6715 30.9019 55.2385 28.893 55.0146C26.8841 54.7908 25.3217 52.9998 25.5448 50.9849C25.7681 48.9701 27.5538 47.4029 29.5626 47.6268C31.5716 47.6268 33.134 49.6417 32.9108 51.6565ZM55.4551 50.9849C55.6783 52.9998 54.1159 54.7908 52.1069 55.0146C50.0981 55.2385 48.3124 53.6715 48.0891 51.6565C47.866 49.6417 49.4284 47.8507 51.4373 47.6268C53.4462 47.4029 55.2319 48.9701 55.4551 50.9849ZM29.7859 30.1647C29.7859 30.1647 29.7859 29.9408 29.7859 29.7169C29.7859 28.8215 30.009 27.7021 30.2323 26.5827L42.9553 41.8061L40.5 43.8211L29.7859 30.1647ZM50.7677 26.5827C51.2141 27.7021 51.4373 28.8215 51.2141 29.7169C51.2141 29.9408 51.2141 30.1647 51.2141 30.1647L44.0713 39.1197L42.0625 36.8809L50.7677 26.5827Z" fill="black"/>
<path d="M69.2886 40.7993L74.4965 45.2632H7.55605L12.764 40.7993C12.9972 40.5993 13.1316 40.3073 13.1316 40C13.1316 39.6927 12.9972 39.4007 12.764 39.2007L7.55605 34.7368H74.4965L69.2886 39.2007C69.0554 39.4007 68.921 39.6927 68.921 40C68.921 40.3073 69.0554 40.5993 69.2886 40.7993Z" fill="white" stroke="black" stroke-width="2" stroke-linejoin="round"/>
<path d="M18.5609 41.7188L19.5414 37.3125H20.9047L19.2953 43H18.3969L18.5609 41.7188ZM17.7328 37.3125L18.7133 41.7188L18.8852 43H17.9789L16.3773 37.3125H17.7328ZM24.7938 38.418L23.6531 43H22.3289L24.0984 37.3125H24.9227L24.7938 38.418ZM25.6922 43L24.5477 38.418L24.3992 37.3125H25.2391L27.0164 43H25.6922ZM25.7352 40.8789V41.8828H23.2156V40.8789H25.7352ZM29.1047 37.3125H30.9914C31.3716 37.3125 31.6984 37.3776 31.9719 37.5078C32.2453 37.638 32.4549 37.8307 32.6008 38.0859C32.7492 38.3411 32.8234 38.6562 32.8234 39.0312C32.8234 39.349 32.7818 39.6172 32.6984 39.8359C32.6151 40.0521 32.4979 40.2318 32.3469 40.375C32.1958 40.5182 32.0174 40.6341 31.8117 40.7227L31.4172 40.9531H29.9133L29.9094 39.9492H30.9602C31.1008 39.9492 31.2167 39.9167 31.3078 39.8516C31.399 39.7865 31.4667 39.694 31.5109 39.5742C31.5578 39.4518 31.5813 39.3073 31.5813 39.1406C31.5813 38.9688 31.5591 38.8216 31.5148 38.6992C31.4732 38.5768 31.4094 38.4831 31.3234 38.418C31.2401 38.3529 31.1294 38.3203 30.9914 38.3203H30.3469V43H29.1047V37.3125ZM31.6594 43L30.632 40.4727L31.9367 40.4688L32.9875 42.9414V43H31.6594ZM36.482 37.3125V43H35.2437V37.3125H36.482ZM41.1641 38.418L40.0234 43H38.6992L40.4688 37.3125H41.293L41.1641 38.418ZM42.0625 43L40.918 38.418L40.7695 37.3125H41.6094L43.3867 43H42.0625ZM42.1055 40.8789V41.8828H39.5859V40.8789H42.1055ZM47.3773 37.3125V43H46.1391V37.3125H47.3773ZM48.7719 37.3125V38.3203H44.7758V37.3125H48.7719ZM52.2898 37.3125V43H51.0516V37.3125H52.2898ZM58.8625 39.7227V40.6289C58.8625 41.0326 58.813 41.388 58.7141 41.6953C58.6151 42 58.4732 42.2552 58.2883 42.4609C58.106 42.6667 57.8872 42.8216 57.632 42.9258C57.3794 43.0273 57.0995 43.0781 56.7922 43.0781C56.4823 43.0781 56.1997 43.0273 55.9445 42.9258C55.6893 42.8216 55.4693 42.6667 55.2844 42.4609C55.0995 42.2552 54.9563 42 54.8547 41.6953C54.7557 41.388 54.7063 41.0326 54.7063 40.6289V39.7227C54.7063 39.3138 54.7557 38.9544 54.8547 38.6445C54.9563 38.332 55.0982 38.0729 55.2805 37.8672C55.4654 37.6589 55.6841 37.5013 55.9367 37.3945C56.1919 37.2878 56.4745 37.2344 56.7844 37.2344C57.0943 37.2344 57.3755 37.2878 57.6281 37.3945C57.8833 37.5013 58.1021 37.6589 58.2844 37.8672C58.4693 38.0729 58.6112 38.332 58.7102 38.6445C58.8117 38.9544 58.8625 39.3138 58.8625 39.7227ZM57.6164 40.6289V39.7148C57.6164 39.4518 57.5982 39.2279 57.5617 39.043C57.5279 38.8581 57.4758 38.707 57.4055 38.5898C57.3352 38.4727 57.2479 38.3867 57.1438 38.332C57.0422 38.2773 56.9224 38.25 56.7844 38.25C56.6438 38.25 56.5214 38.2773 56.4172 38.332C56.313 38.3867 56.2258 38.4727 56.1555 38.5898C56.0878 38.707 56.037 38.8581 56.0031 39.043C55.9719 39.2279 55.9563 39.4518 55.9563 39.7148V40.6289C55.9563 40.8841 55.9732 41.1029 56.007 41.2852C56.0409 41.4674 56.093 41.6159 56.1633 41.7305C56.2336 41.8451 56.3208 41.9297 56.425 41.9844C56.5292 42.0391 56.6516 42.0664 56.7922 42.0664C56.9276 42.0664 57.0461 42.0391 57.1477 41.9844C57.2518 41.9297 57.3378 41.8451 57.4055 41.7305C57.4758 41.6159 57.5279 41.4674 57.5617 41.2852C57.5982 41.1029 57.6164 40.8841 57.6164 40.6289ZM65.2594 37.3125V43H64.0445L62.4352 39.4609V43H61.2242V37.3125H62.4391L64.0523 40.8711V37.3125H65.2594Z" fill="black"/>
</svg>
