<svg width="76" height="76" viewBox="0 0 76 76" fill="none" xmlns="http://www.w3.org/2000/svg">
<g clip-path="url(#clip0_43_41)">
<path d="M38 76C58.9868 76 76 58.9868 76 38C76 17.0132 58.9868 0 38 0C17.0132 0 0 17.0132 0 38C0 58.9868 17.0132 76 38 76Z" fill="#3ABEF9"/>
<path d="M38.5 64.5C52.8594 64.5 64.5 52.8594 64.5 38.5C64.5 24.1406 52.8594 12.5 38.5 12.5C24.1406 12.5 12.5 24.1406 12.5 38.5C12.5 52.8594 24.1406 64.5 38.5 64.5Z" fill="white" stroke="#0C0D36" stroke-width="3"/>
<path d="M17.0123 26.9646L32.0061 29.3291C32.4529 29.3995 32.9068 29.645 33.2678 30.0115C33.6289 30.378 33.8675 30.8355 33.9313 31.2834L35.8301 44.6224C35.8938 45.0702 36.1325 45.5277 36.4935 45.8942C36.8546 46.2607 37.3084 46.5062 37.7553 46.5766L43.9163 47.5482C44.3631 47.6187 44.817 47.8642 45.178 48.2307C45.5391 48.5972 45.7777 49.0546 45.8415 49.5025L47.6407 62.1421" stroke="#0C0D36" stroke-width="2" stroke-linecap="round" stroke-linejoin="round"/>
<path d="M49.9739 51.9512C51.064 53.0577 52.8447 53.0711 53.9513 51.981C55.0578 50.8909 55.0712 49.1102 53.9811 48.0036C52.891 46.8971 51.1103 46.8837 50.0038 47.9738C48.8972 49.0639 48.8838 50.8446 49.9739 51.9512Z" fill="#0C0D36"/>
<path d="M55 34.0833V30.9167L53.1 30.2833C52.9417 29.8083 52.7833 29.175 52.4667 28.7L53.4167 26.8L51.0417 24.7417L49.3 25.5333C48.825 25.2167 48.35 25.0583 47.7167 24.9L47.0833 23H43.9167L43.2833 24.9C42.8083 25.0583 42.175 25.2167 41.7 25.5333L39.9583 24.7417L37.7417 26.9583L38.6917 28.8583C38.375 29.3333 38.2167 29.8083 38.0583 30.4417L36 30.9167V34.0833L37.9 34.7167C38.0583 35.1917 38.2167 35.825 38.5333 36.3L37.7417 38.0417L39.9583 40.2583L41.8583 39.3083C42.3333 39.625 42.8083 39.7833 43.4417 39.9417L43.9167 42H47.0833L47.7167 40.1C48.1917 39.9417 48.825 39.7833 49.3 39.4667L51.2 40.4167L53.4167 38.2L52.4667 36.3C52.7833 35.825 52.9417 35.35 53.1 34.7167L55 34.0833ZM40.75 32.5C40.75 29.8083 42.8083 27.75 45.5 27.75C48.1917 27.75 50.25 29.8083 50.25 32.5C50.25 35.1917 48.1917 37.25 45.5 37.25C42.8083 37.25 40.75 35.1917 40.75 32.5Z" fill="#0C0D36"/>
<path d="M46.5 36C46.5 36.828 45.828 37.5 45 37.5C44.172 37.5 43.5 36.828 43.5 36C43.5 35.172 44.172 34.5 45 34.5C45.828 34.5 46.5 35.172 46.5 36Z" fill="#0C0D36"/>
<path d="M54.4 41.8C54.3 41.5 54.2 41.2 54 40.9L54.3 40.3L53.6 39.6L53.1 40C52.8 39.8 52.5 39.7 52.2 39.6L52 39H51L50.8 39.6C50.5 39.7 50.2 39.8 49.9 40L49.3 39.7L48.6 40.4L48.9 41C48.7 41.3 48.6 41.6 48.5 41.9L48 42V43L48.6 43.2C48.7 43.5 48.8 43.8 49 44.1L48.7 44.7L49.4 45.4L50 45.1C50.3 45.3 50.6 45.4 50.9 45.5L51 46H52L52.2 45.4C52.5 45.3 52.8 45.2 53.1 45L53.7 45.3L54.4 44.6L54 44.1C54.2 43.8 54.3 43.5 54.4 43.2L55 43V42L54.4 41.8ZM51.5 44C50.7 44 50 43.3 50 42.5C50 41.7 50.7 41 51.5 41C52.3 41 53 41.7 53 42.5C53 43.3 52.3 44 51.5 44Z" fill="#0C0D36"/>
<path d="M65.3492 39.7593L70.2967 44H6.70325L11.6508 39.7593C11.8724 39.5693 12 39.2919 12 39C12 38.7081 11.8724 38.4307 11.6508 38.2407L6.70325 34H70.2967L65.3492 38.2407C65.1276 38.4307 65 38.7081 65 39C65 39.2919 65.1276 39.5693 65.3492 39.7593Z" fill="white" stroke="#0C0D36" stroke-width="2" stroke-linejoin="round"/>
<path d="M13.7195 36.3125H15.8406C16.2755 36.3125 16.6492 36.3776 16.9617 36.5078C17.2768 36.638 17.519 36.8307 17.6883 37.0859C17.8576 37.3411 17.9422 37.6549 17.9422 38.0273C17.9422 38.332 17.8901 38.5938 17.7859 38.8125C17.6844 39.0286 17.5398 39.2096 17.3523 39.3555C17.1674 39.4987 16.95 39.6133 16.7 39.6992L16.3289 39.8945H14.4852L14.4773 38.9805H15.8484C16.0542 38.9805 16.2247 38.944 16.3602 38.8711C16.4956 38.7982 16.5971 38.6966 16.6648 38.5664C16.7352 38.4362 16.7703 38.2852 16.7703 38.1133C16.7703 37.931 16.7365 37.7734 16.6688 37.6406C16.601 37.5078 16.4982 37.4062 16.3602 37.3359C16.2221 37.2656 16.049 37.2305 15.8406 37.2305H14.8914V42H13.7195V36.3125ZM16.8992 42L15.6023 39.4648L16.8406 39.457L18.1531 41.9453V42H16.8992ZM23.0609 41.0859V42H20.0336V41.0859H23.0609ZM20.4164 36.3125V42H19.2445V36.3125H20.4164ZM22.6664 38.6289V39.5195H20.0336V38.6289H22.6664ZM23.057 36.3125V37.2305H20.0336V36.3125H23.057ZM26.3594 39.9727H24.9102V39.0586H26.3594C26.5833 39.0586 26.7656 39.0221 26.9063 38.9492C27.0469 38.8737 27.1497 38.7695 27.2148 38.6367C27.2799 38.5039 27.3125 38.3542 27.3125 38.1875C27.3125 38.0182 27.2799 37.8607 27.2148 37.7148C27.1497 37.569 27.0469 37.4518 26.9063 37.3633C26.7656 37.2747 26.5833 37.2305 26.3594 37.2305H25.3164V42H24.1445V36.3125H26.3594C26.8047 36.3125 27.1862 36.3932 27.5039 36.5547C27.8242 36.7135 28.069 36.9336 28.2383 37.2148C28.4076 37.4961 28.4922 37.8177 28.4922 38.1797C28.4922 38.5469 28.4076 38.8646 28.2383 39.1328C28.069 39.401 27.8242 39.6081 27.5039 39.7539C27.1862 39.8997 26.8047 39.9727 26.3594 39.9727ZM31.3648 37.2852L29.818 42H28.5719L30.6852 36.3125H31.4781L31.3648 37.2852ZM32.65 42L31.0992 37.2852L30.9742 36.3125H31.775L33.9 42H32.65ZM32.5797 39.8828V40.8008H29.5758V39.8828H32.5797ZM36.0734 36.3125V42H34.9055V36.3125H36.0734ZM37.5711 36.3125H39.6922C40.1271 36.3125 40.5008 36.3776 40.8133 36.5078C41.1284 36.638 41.3706 36.8307 41.5398 37.0859C41.7091 37.3411 41.7938 37.6549 41.7938 38.0273C41.7938 38.332 41.7417 38.5938 41.6375 38.8125C41.5359 39.0286 41.3914 39.2096 41.2039 39.3555C41.019 39.4987 40.8016 39.6133 40.5516 39.6992L40.1805 39.8945H38.3367L38.3289 38.9805H39.7C39.9057 38.9805 40.0763 38.944 40.2117 38.8711C40.3471 38.7982 40.4487 38.6966 40.5164 38.5664C40.5867 38.4362 40.6219 38.2852 40.6219 38.1133C40.6219 37.931 40.588 37.7734 40.5203 37.6406C40.4526 37.5078 40.3497 37.4062 40.2117 37.3359C40.0737 37.2656 39.9005 37.2305 39.6922 37.2305H38.743V42H37.5711V36.3125ZM40.7508 42L39.4539 39.4648L40.6922 39.457L42.0047 41.9453V42H40.7508ZM46.9125 41.0859V42H43.8852V41.0859H46.9125ZM44.268 36.3125V42H43.0961V36.3125H44.268ZM46.518 38.6289V39.5195H43.8852V38.6289H46.518ZM46.9086 36.3125V37.2305H43.8852V36.3125H46.9086ZM50.9234 36.3125H51.9156L53.3766 40.4883L54.8375 36.3125H55.8297L53.775 42H52.9781L50.9234 36.3125ZM50.3883 36.3125H51.3766L51.5563 40.3828V42H50.3883V36.3125ZM55.3766 36.3125H56.3688V42H55.1969V40.3828L55.3766 36.3125ZM61.6125 41.0859V42H58.5852V41.0859H61.6125ZM58.968 36.3125V42H57.7961V36.3125H58.968ZM61.218 38.6289V39.5195H58.5852V38.6289H61.218ZM61.6086 36.3125V37.2305H58.5852V36.3125H61.6086Z" fill="#0C0D36"/>
</g>
<defs>
<clipPath id="clip0_43_41">
<rect width="76" height="76" fill="white"/>
</clipPath>
</defs>
</svg>
